# xmcd
#
# Track frame offsets:
#	150
#	12834
#	27027
#	39688
#	52420
#	64127
#	77657
#	88356
#	101358
#	114504
#	128113
#	141011
#	154121
#	169784
#	181685
#	195942
#	210666
#	222303
#	235380
#	247575
#	259470
#	271614
#	284943
#
# Disc length: 3964 seconds
#
# Revision: 2245299618
# Processed by: cddbd v1.5.2PL0 Copyright (c) Steve Scherf et al.
# Submitted via: EZCDAudioConverter 8.3.2.1
#
DISCID=480f7a17
DTITLE=JIMMIE RODGERS - RECORDINGS 1927 - 1933 [DISC 2]
DYEAR=2007
DGENRE=Traditional Country
TTITLE0=WAITING FOR A TRAIN
TTITLE1=I'M LONELY AND BLUE
TTITLE2=DESERT BLUES
TTITLE3=ANY OLD TIME
TTITLE4=BLUE YODEL #5
TTITLE5=HIGH POWERED MAMA
TTITLE6=I'M SORRY WE MET
TTITLE7=EVERYBODY DOES IT IN HAWAII
TTITLE8=TUCK AWAY MY LONESOME BLUES
TTITLE9=TRAIN WHISTLE BLUES
TTITLE10=JIMMIE'S TEXAS BLUES
TTITLE11=FRANKIE AND JOHNNIE
TTITLE12=WHISPER YOUR MOTHER'S NAME
TTITLE13=THE LAND OF MY BOYHOOD DREAMS
TTITLE14=BLUE YODEL #6
TTITLE15=YODELING COWBOY
TTITLE16=MY ROUGH AND ROWDY WAYS
TTITLE17=I'VE RANGED, I'VE ROAMED, I'VE TRAVELED
TTITLE18=HOBO BILL'S LAST RIDE
TTITLE19=MISSISSIPPI RIVER BLUES
TTITLE20=NOBODY KNOWS BUT ME
TTITLE21=ANNIVERSARY BLUE YODEL
TTITLE22=SHE WAS HAPPY TILL SHE MET YOU
EXTD=
EXTT0=
EXTT1=
EXTT2=
EXTT3=
EXTT4=
EXTT5=
EXTT6=
EXTT7=
EXTT8=
EXTT9=
EXTT10=
EXTT11=
EXTT12=
EXTT13=
EXTT14=
EXTT15=
EXTT16=
EXTT17=
EXTT18=
EXTT19=
EXTT20=
EXTT21=
EXTT22=
PLAYORDER=
